<svg width="737" height="394" viewBox="0 0 737 394" fill="none" xmlns="http://www.w3.org/2000/svg">
<rect width="737" height="394" fill="white"/>
<path d="M554 314.025V233" stroke="#000D6E" stroke-width="4" stroke-linecap="round"/>
<line x1="147" y1="312.025" x2="147" y2="235" stroke="#000D6E" stroke-width="4" stroke-linecap="round"/>
<path d="M554.75 156.8L333 78" stroke="#000D6E" stroke-width="4" stroke-linecap="round"/>
<path d="M148.266 151.14L333.266 78.1396" stroke="#000D6E" stroke-width="4" stroke-linecap="round"/>
<rect x="240" width="188" height="80" rx="12" fill="#B8B2FF"/>
<path d="M321.27 54L311.91 26.2H304.67L295.31 54H301.19L303.15 48.04H313.47L315.43 54H321.27ZM308.31 32.44L311.87 43.2H304.75L308.31 32.44ZM335.603 32.44C332.843 32.44 330.563 33.44 328.963 35.24V32.92H323.483V61.16H329.403V52.24C330.923 53.72 332.963 54.52 335.443 54.52C341.523 54.52 345.923 49.76 345.923 43.48C345.923 37.16 341.683 32.44 335.603 32.44ZM334.643 49.28C331.363 49.28 329.163 46.92 329.163 43.48C329.163 40.04 331.363 37.64 334.643 37.64C337.763 37.64 340.043 40.12 340.043 43.48C340.043 46.84 337.763 49.28 334.643 49.28ZM361.306 32.44C358.546 32.44 356.266 33.44 354.666 35.24V32.92H349.186V61.16H355.106V52.24C356.626 53.72 358.666 54.52 361.146 54.52C367.226 54.52 371.626 49.76 371.626 43.48C371.626 37.16 367.386 32.44 361.306 32.44ZM360.346 49.28C357.066 49.28 354.866 46.92 354.866 43.48C354.866 40.04 357.066 37.64 360.346 37.64C363.466 37.64 365.746 40.12 365.746 43.48C365.746 46.84 363.466 49.28 360.346 49.28Z" fill="#000D6E"/>
<rect y="153" width="299" height="80" rx="12" fill="#B8B2FF"/>
<path d="M76.3017 179.2H57.8217V207H63.7817V195.68H74.8217V190.52H63.7817V184.36H76.3017V179.2ZM82.3339 182.84C84.4939 182.84 86.2139 181.32 86.2139 179.12C86.2139 176.92 84.4939 175.32 82.3339 175.32C80.1739 175.32 78.4939 176.92 78.4939 179.12C78.4939 181.32 80.1739 182.84 82.3339 182.84ZM85.2939 207V185.92H79.3739V207H85.2939ZM95.1302 185.92H89.5302V207H95.4502V195.4C95.4502 192.6 97.5702 190.96 101.17 190.96V185.4C98.6902 185.4 96.5702 186.44 95.1302 187.96V185.92ZM111.275 207.52C116.675 207.52 120.155 204.92 120.155 200.68C120.155 192.92 108.875 194.96 108.875 191.56C108.875 190.48 109.755 189.84 111.355 189.84C112.915 189.84 114.035 190.56 114.555 192L119.555 190.08C118.675 187.16 115.635 185.44 111.435 185.44C106.315 185.44 103.035 187.88 103.035 191.88C103.035 199.12 114.275 197.36 114.275 201.04C114.275 202.24 113.235 202.96 111.475 202.96C109.115 202.96 107.595 201.88 107.035 200.04L102.035 201.96C103.235 205.6 106.595 207.52 111.275 207.52ZM136.21 207V201.84H133.97C131.89 201.84 130.73 200.64 130.73 198.4V190.96H136.05V185.92H130.93V180.36H125.17V183.64C125.17 185.16 124.45 185.92 123.01 185.92H121.21V190.96H124.81V199.12C124.81 203.88 127.49 207 132.73 207H136.21ZM147.314 179.2V207H153.274V196.72H158.674C164.594 196.72 168.394 193.24 168.394 187.96C168.394 182.64 164.634 179.2 158.674 179.2H147.314ZM153.274 191.52V184.4H158.354C160.994 184.4 162.354 185.88 162.354 187.96C162.354 190.04 160.994 191.52 158.354 191.52H153.274ZM186.741 188.48C185.221 186.76 183.021 185.8 180.261 185.8C174.181 185.8 169.781 190.16 169.781 196.48C169.781 202.76 174.181 207.52 180.261 207.52C183.021 207.52 185.221 206.48 186.741 204.68V207H192.221V185.92H186.741V188.48ZM181.101 202.28C177.941 202.28 175.661 199.84 175.661 196.48C175.661 193.12 177.941 190.64 181.101 190.64C184.341 190.64 186.541 193.04 186.541 196.48C186.541 199.92 184.341 202.28 181.101 202.28ZM212.444 188.24C210.924 186.48 208.724 185.44 205.924 185.44C199.884 185.44 195.484 190.16 195.484 195.92C195.484 201.68 199.844 206.28 205.924 206.28C208.724 206.28 210.924 205.24 212.444 203.48V204.36C212.444 207.6 210.204 209.72 206.404 209.72C203.764 209.72 201.684 208.72 200.804 206.52L195.764 208.48C197.164 212.16 200.484 214.68 206.364 214.68C213.684 214.68 217.924 210.24 217.924 203.8V185.92H212.444V188.24ZM206.684 201.76C203.644 201.76 201.364 199.32 201.364 196.2C201.364 193.08 203.644 190.64 206.724 190.64C209.884 190.64 212.084 193 212.084 196.2C212.084 199.36 209.884 201.76 206.684 201.76ZM242.628 198.28C242.708 197.76 242.748 196.96 242.748 196.04C242.748 190.76 238.708 185.44 231.908 185.44C225.868 185.44 221.028 190.36 221.028 196.48C221.028 202.76 225.468 207.52 232.308 207.52C237.468 207.52 240.188 205.4 241.828 203L237.308 200C236.388 201.68 235.068 202.6 232.468 202.6C229.668 202.6 227.508 201.04 226.828 198.28H242.628ZM226.748 194.4C227.348 191.52 229.348 189.92 232.068 189.92C234.788 189.92 236.628 191.64 237.188 194.4H226.748Z" fill="#000D6E"/>
<rect x="374" y="153" width="363" height="80" rx="12" fill="#B8B2FF"/>
<path d="M440.985 207.48C447.545 207.48 451.585 204.16 451.585 199.32C451.585 188.8 437.505 191.68 437.505 186.36C437.505 184.84 438.705 183.76 441.065 183.76C443.305 183.76 444.865 184.88 445.545 187.24L451.145 185.08C450.105 181.28 446.505 178.72 441.345 178.72C435.105 178.72 431.545 182.08 431.545 186.84C431.545 196.72 445.585 193.92 445.585 199.48C445.585 201.28 444.105 202.36 441.585 202.36C438.745 202.36 436.665 200.88 435.945 198.2L430.345 200.36C431.705 204.92 435.665 207.48 440.985 207.48ZM475.542 198.28C475.622 197.76 475.662 196.96 475.662 196.04C475.662 190.76 471.622 185.44 464.822 185.44C458.782 185.44 453.942 190.36 453.942 196.48C453.942 202.76 458.382 207.52 465.222 207.52C470.382 207.52 473.102 205.4 474.742 203L470.222 200C469.302 201.68 467.982 202.6 465.382 202.6C462.582 202.6 460.422 201.04 459.742 198.28H475.542ZM459.662 194.4C460.262 191.52 462.262 189.92 464.982 189.92C467.702 189.92 469.542 191.64 470.102 194.4H459.662ZM488.892 207.52C494.732 207.52 498.252 203.76 499.172 200.68L493.892 198.56C493.292 200.72 491.532 202.24 489.012 202.24C486.052 202.24 483.732 200 483.732 196.48C483.732 192.96 486.052 190.72 489.012 190.72C491.492 190.72 493.172 192.24 493.772 194.44L499.052 192.36C498.132 189.2 494.612 185.44 488.892 185.44C482.492 185.44 477.772 190.28 477.772 196.52C477.772 202.76 482.572 207.52 488.892 207.52ZM512.219 207.52C518.859 207.52 523.619 202.76 523.619 196.48C523.619 190.16 518.859 185.44 512.219 185.44C505.539 185.44 500.819 190.16 500.819 196.48C500.819 202.76 505.539 207.52 512.219 207.52ZM512.259 202.24C508.979 202.24 506.779 199.84 506.779 196.48C506.779 193.08 508.979 190.72 512.259 190.72C515.539 190.72 517.699 193.08 517.699 196.44C517.699 199.84 515.459 202.24 512.259 202.24ZM538.818 185.4C536.098 185.4 533.898 186.4 532.458 187.88V185.92H526.858V207H532.778V194.52C532.818 192.36 534.658 190.68 537.018 190.68C539.418 190.68 541.178 192.2 541.178 194.88V207H547.058V193.72C547.058 188.8 543.858 185.4 538.818 185.4ZM566.676 187.76C565.116 186.28 562.996 185.44 560.476 185.44C554.436 185.44 550.156 190.16 550.156 196.48C550.156 202.76 554.556 207.52 560.636 207.52C563.356 207.52 565.556 206.52 567.116 204.84V207H572.596V177.76H566.676V187.76ZM561.476 202.28C558.316 202.28 556.036 199.84 556.036 196.48C556.036 193.12 558.316 190.64 561.476 190.64C564.716 190.64 566.916 193.04 566.916 196.48C566.916 199.92 564.716 202.28 561.476 202.28ZM585.111 179.2V207H591.071V196.72H596.471C602.391 196.72 606.191 193.24 606.191 187.96C606.191 182.64 602.431 179.2 596.471 179.2H585.111ZM591.071 191.52V184.4H596.151C598.791 184.4 600.151 185.88 600.151 187.96C600.151 190.04 598.791 191.52 596.151 191.52H591.071ZM624.538 188.48C623.018 186.76 620.818 185.8 618.058 185.8C611.978 185.8 607.578 190.16 607.578 196.48C607.578 202.76 611.978 207.52 618.058 207.52C620.818 207.52 623.018 206.48 624.538 204.68V207H630.018V185.92H624.538V188.48ZM618.898 202.28C615.738 202.28 613.458 199.84 613.458 196.48C613.458 193.12 615.738 190.64 618.898 190.64C622.138 190.64 624.338 193.04 624.338 196.48C624.338 199.92 622.138 202.28 618.898 202.28ZM650.241 188.24C648.721 186.48 646.521 185.44 643.721 185.44C637.681 185.44 633.281 190.16 633.281 195.92C633.281 201.68 637.641 206.28 643.721 206.28C646.521 206.28 648.721 205.24 650.241 203.48V204.36C650.241 207.6 648.001 209.72 644.201 209.72C641.561 209.72 639.481 208.72 638.601 206.52L633.561 208.48C634.961 212.16 638.281 214.68 644.161 214.68C651.481 214.68 655.721 210.24 655.721 203.8V185.92H650.241V188.24ZM644.481 201.76C641.441 201.76 639.161 199.32 639.161 196.2C639.161 193.08 641.441 190.64 644.521 190.64C647.681 190.64 649.881 193 649.881 196.2C649.881 199.36 647.681 201.76 644.481 201.76ZM680.425 198.28C680.505 197.76 680.545 196.96 680.545 196.04C680.545 190.76 676.505 185.44 669.705 185.44C663.665 185.44 658.825 190.36 658.825 196.48C658.825 202.76 663.265 207.52 670.105 207.52C675.265 207.52 677.985 205.4 679.625 203L675.105 200C674.185 201.68 672.865 202.6 670.265 202.6C667.465 202.6 665.305 201.04 664.625 198.28H680.425ZM664.545 194.4C665.145 191.52 667.145 189.92 669.865 189.92C672.585 189.92 674.425 191.64 674.985 194.4H664.545Z" fill="#000D6E"/>
<rect x="10" y="314" width="279" height="80" rx="12" fill="#B8B2FF"/>
<path d="M81.0766 353.08V357.56H89.5166C88.3966 361.4 85.5966 363.16 81.7566 363.16C76.1966 363.16 72.8766 359.6 72.8766 354.24C72.8766 348.92 76.1566 345.32 81.1166 345.32C84.8766 345.32 87.4366 347.28 88.5166 350.48L94.1966 348.12C92.5166 343.68 88.0766 339.68 81.2366 339.68C72.9966 339.68 66.8366 345.76 66.8366 354.12C66.8366 362.4 72.9166 368.52 81.2366 368.52C89.1966 368.52 95.3166 362.96 95.3166 353.08H81.0766ZM104.212 346.92H98.6122V368H104.532V356.4C104.532 353.6 106.652 351.96 110.252 351.96V346.4C107.772 346.4 105.652 347.44 104.212 348.96V346.92ZM132.843 359.28C132.923 358.76 132.963 357.96 132.963 357.04C132.963 351.76 128.923 346.44 122.123 346.44C116.083 346.44 111.243 351.36 111.243 357.48C111.243 363.76 115.683 368.52 122.523 368.52C127.683 368.52 130.403 366.4 132.043 364L127.523 361C126.603 362.68 125.283 363.6 122.683 363.6C119.883 363.6 117.723 362.04 117.043 359.28H132.843ZM116.963 355.4C117.563 352.52 119.563 350.92 122.283 350.92C125.003 350.92 126.843 352.64 127.403 355.4H116.963ZM156.593 359.28C156.673 358.76 156.713 357.96 156.713 357.04C156.713 351.76 152.673 346.44 145.873 346.44C139.833 346.44 134.993 351.36 134.993 357.48C134.993 363.76 139.433 368.52 146.273 368.52C151.433 368.52 154.153 366.4 155.793 364L151.273 361C150.353 362.68 149.033 363.6 146.433 363.6C143.633 363.6 141.473 362.04 140.793 359.28H156.593ZM140.713 355.4C141.313 352.52 143.313 350.92 146.033 350.92C148.753 350.92 150.593 352.64 151.153 355.4H140.713ZM172.753 368V362.84H170.513C168.433 362.84 167.273 361.64 167.273 359.4V351.96H172.593V346.92H167.473V341.36H161.713V344.64C161.713 346.16 160.993 346.92 159.553 346.92H157.753V351.96H161.353V360.12C161.353 364.88 164.033 368 169.273 368H172.753ZM178.525 343.84C180.685 343.84 182.405 342.32 182.405 340.12C182.405 337.92 180.685 336.32 178.525 336.32C176.365 336.32 174.685 337.92 174.685 340.12C174.685 342.32 176.365 343.84 178.525 343.84ZM181.485 368V346.92H175.565V368H181.485ZM197.682 346.4C194.962 346.4 192.762 347.4 191.322 348.88V346.92H185.722V368H191.642V355.52C191.682 353.36 193.522 351.68 195.882 351.68C198.282 351.68 200.042 353.2 200.042 355.88V368H205.922V354.72C205.922 349.8 202.722 346.4 197.682 346.4ZM225.979 349.24C224.459 347.48 222.259 346.44 219.459 346.44C213.419 346.44 209.019 351.16 209.019 356.92C209.019 362.68 213.379 367.28 219.459 367.28C222.259 367.28 224.459 366.24 225.979 364.48V365.36C225.979 368.6 223.739 370.72 219.939 370.72C217.299 370.72 215.219 369.72 214.339 367.52L209.299 369.48C210.699 373.16 214.019 375.68 219.899 375.68C227.219 375.68 231.459 371.24 231.459 364.8V346.92H225.979V349.24ZM220.219 362.76C217.179 362.76 214.899 360.32 214.899 357.2C214.899 354.08 217.179 351.64 220.259 351.64C223.419 351.64 225.619 354 225.619 357.2C225.619 360.36 223.419 362.76 220.219 362.76Z" fill="#000D6E"/>
<rect x="416" y="314" width="279" height="80" rx="12" fill="#B8B2FF"/>
<path d="M487.077 353.08V357.56H495.517C494.397 361.4 491.597 363.16 487.757 363.16C482.197 363.16 478.877 359.6 478.877 354.24C478.877 348.92 482.157 345.32 487.117 345.32C490.877 345.32 493.437 347.28 494.517 350.48L500.197 348.12C498.517 343.68 494.077 339.68 487.237 339.68C478.997 339.68 472.837 345.76 472.837 354.12C472.837 362.4 478.917 368.52 487.237 368.52C495.197 368.52 501.317 362.96 501.317 353.08H487.077ZM510.212 346.92H504.612V368H510.532V356.4C510.532 353.6 512.652 351.96 516.252 351.96V346.4C513.772 346.4 511.652 347.44 510.212 348.96V346.92ZM538.843 359.28C538.923 358.76 538.963 357.96 538.963 357.04C538.963 351.76 534.923 346.44 528.123 346.44C522.083 346.44 517.243 351.36 517.243 357.48C517.243 363.76 521.683 368.52 528.523 368.52C533.683 368.52 536.403 366.4 538.043 364L533.523 361C532.603 362.68 531.283 363.6 528.683 363.6C525.883 363.6 523.723 362.04 523.043 359.28H538.843ZM522.963 355.4C523.563 352.52 525.563 350.92 528.283 350.92C531.003 350.92 532.843 352.64 533.403 355.4H522.963ZM562.593 359.28C562.673 358.76 562.713 357.96 562.713 357.04C562.713 351.76 558.673 346.44 551.873 346.44C545.833 346.44 540.993 351.36 540.993 357.48C540.993 363.76 545.433 368.52 552.273 368.52C557.433 368.52 560.153 366.4 561.793 364L557.273 361C556.353 362.68 555.033 363.6 552.433 363.6C549.633 363.6 547.473 362.04 546.793 359.28H562.593ZM546.713 355.4C547.313 352.52 549.313 350.92 552.033 350.92C554.753 350.92 556.593 352.64 557.153 355.4H546.713ZM578.753 368V362.84H576.513C574.433 362.84 573.273 361.64 573.273 359.4V351.96H578.593V346.92H573.473V341.36H567.713V344.64C567.713 346.16 566.993 346.92 565.553 346.92H563.753V351.96H567.353V360.12C567.353 364.88 570.033 368 575.273 368H578.753ZM584.525 343.84C586.685 343.84 588.405 342.32 588.405 340.12C588.405 337.92 586.685 336.32 584.525 336.32C582.365 336.32 580.685 337.92 580.685 340.12C580.685 342.32 582.365 343.84 584.525 343.84ZM587.485 368V346.92H581.565V368H587.485ZM603.682 346.4C600.962 346.4 598.762 347.4 597.322 348.88V346.92H591.722V368H597.642V355.52C597.682 353.36 599.522 351.68 601.882 351.68C604.282 351.68 606.042 353.2 606.042 355.88V368H611.922V354.72C611.922 349.8 608.722 346.4 603.682 346.4ZM631.979 349.24C630.459 347.48 628.259 346.44 625.459 346.44C619.419 346.44 615.019 351.16 615.019 356.92C615.019 362.68 619.379 367.28 625.459 367.28C628.259 367.28 630.459 366.24 631.979 364.48V365.36C631.979 368.6 629.739 370.72 625.939 370.72C623.299 370.72 621.219 369.72 620.339 367.52L615.299 369.48C616.699 373.16 620.019 375.68 625.899 375.68C633.219 375.68 637.459 371.24 637.459 364.8V346.92H631.979V349.24ZM626.219 362.76C623.179 362.76 620.899 360.32 620.899 357.2C620.899 354.08 623.179 351.64 626.259 351.64C629.419 351.64 631.619 354 631.619 357.2C631.619 360.36 629.419 362.76 626.219 362.76Z" fill="#000D6E"/>
</svg>
